<?xml version="1.0" encoding="UTF-8" standalone="yes"?><svg xmlns="http://www.w3.org/2000/svg" xmlns:xlink="http://www.w3.org/1999/xlink" height="276px" style="width:446px;height:276px;" version="1.1" viewBox="0 0 446 276" width="446px"><defs/><g><rect fill="#73AE42" height="155.4688" style="stroke: #6CA43E; stroke-width: 1.0;" width="10" x="216" y="65.2969"/><rect fill="#73AE42" height="29.1328" style="stroke: #6CA43E; stroke-width: 1.0;" width="10" x="365" y="118.5625"/><rect fill="#FFFFFF" height="148.4688" style="stroke: #000000; stroke-width: 2.0;" width="432" x="13" y="80.4297"/><rect fill="#FFFFFF" height="43.9375" style="stroke: none; stroke-width: 1.0;" width="432" x="13" y="184.9609"/><line style="stroke: #6CA43E; stroke-width: 1.0; stroke-dasharray: 5.0,5.0;" x1="64" x2="64" y1="34.2969" y2="245.8984"/><line style="stroke: #6CA43E; stroke-width: 1.0; stroke-dasharray: 5.0,5.0;" x1="220.5" x2="220.5" y1="34.2969" y2="245.8984"/><line style="stroke: #6CA43E; stroke-width: 1.0; stroke-dasharray: 5.0,5.0;" x1="370" x2="370" y1="34.2969" y2="245.8984"/><rect fill="#5B9BD5" height="30.2969" style="stroke: #2E75B5; stroke-width: 1.5;" width="82" x="23" y="3"/><text fill="#000000" font-family="sans-serif" font-size="14" lengthAdjust="spacingAndGlyphs" textLength="68" x="30" y="22.9951">Utilisateur</text><rect fill="#5B9BD5" height="30.2969" style="stroke: #2E75B5; stroke-width: 1.5;" width="82" x="23" y="244.8984"/><text fill="#000000" font-family="sans-serif" font-size="14" lengthAdjust="spacingAndGlyphs" textLength="68" x="30" y="264.8936">Utilisateur</text><rect fill="#5B9BD5" height="30.2969" style="stroke: #2E75B5; stroke-width: 1.5;" width="67" x="187.5" y="3"/><text fill="#000000" font-family="sans-serif" font-size="14" lengthAdjust="spacingAndGlyphs" textLength="53" x="194.5" y="22.9951">Serveur</text><rect fill="#5B9BD5" height="30.2969" style="stroke: #2E75B5; stroke-width: 1.5;" width="67" x="187.5" y="244.8984"/><text fill="#000000" font-family="sans-serif" font-size="14" lengthAdjust="spacingAndGlyphs" textLength="53" x="194.5" y="264.8936">Serveur</text><rect fill="#5B9BD5" height="30.2969" style="stroke: #2E75B5; stroke-width: 1.5;" width="74" x="333" y="3"/><text fill="#000000" font-family="sans-serif" font-size="14" lengthAdjust="spacingAndGlyphs" textLength="60" x="340" y="22.9951">Système</text><rect fill="#5B9BD5" height="30.2969" style="stroke: #2E75B5; stroke-width: 1.5;" width="74" x="333" y="244.8984"/><text fill="#000000" font-family="sans-serif" font-size="14" lengthAdjust="spacingAndGlyphs" textLength="60" x="340" y="264.8936">Système</text><rect fill="#73AE42" height="155.4688" style="stroke: #6CA43E; stroke-width: 1.0;" width="10" x="216" y="65.2969"/><rect fill="#73AE42" height="29.1328" style="stroke: #6CA43E; stroke-width: 1.0;" width="10" x="365" y="118.5625"/><polygon fill="#6CA43E" points="204,61.2969,214,65.2969,204,69.2969,208,65.2969" style="stroke: #6CA43E; stroke-width: 1.0;"/><line style="stroke: #6CA43E; stroke-width: 1.0;" x1="64" x2="210" y1="65.2969" y2="65.2969"/><text fill="#000000" font-family="sans-serif" font-size="13" lengthAdjust="spacingAndGlyphs" textLength="75" x="71" y="60.3638">connexion()</text><rect fill="none" height="148.4688" style="stroke: #000000; stroke-width: 2.0;" width="432" x="13" y="80.4297"/><polygon fill="#EEEEEE" points="13,80.4297,77,80.4297,77,87.4297,67,97.4297,13,97.4297,13,80.4297" style="stroke: #000000; stroke-width: 2.0;"/><text fill="#000000" font-family="sans-serif" font-size="13" font-weight="bold" lengthAdjust="spacingAndGlyphs" textLength="19" x="28" y="93.4966">alt</text><text fill="#000000" font-family="sans-serif" font-size="11" font-weight="bold" lengthAdjust="spacingAndGlyphs" textLength="348" x="92" y="92.6401">[nombre maximal d'utilisateurs connectés non atteint]</text><polygon fill="#6CA43E" points="353,114.5625,363,118.5625,353,122.5625,357,118.5625" style="stroke: #6CA43E; stroke-width: 1.0;"/><line style="stroke: #6CA43E; stroke-width: 1.0;" x1="226" x2="359" y1="118.5625" y2="118.5625"/><text fill="#000000" font-family="sans-serif" font-size="13" lengthAdjust="spacingAndGlyphs" textLength="120" x="233" y="113.6294">ajouterUtilisateur()</text><polygon fill="#6CA43E" points="237,143.6953,227,147.6953,237,151.6953,233,147.6953" style="stroke: #6CA43E; stroke-width: 1.0;"/><line style="stroke: #6CA43E; stroke-width: 1.0; stroke-dasharray: 2.0,2.0;" x1="231" x2="369" y1="147.6953" y2="147.6953"/><text fill="#000000" font-family="sans-serif" font-size="13" lengthAdjust="spacingAndGlyphs" textLength="109" x="243" y="142.7622">Utilisateur ajouté</text><polygon fill="#6CA43E" points="75,172.8281,65,176.8281,75,180.8281,71,176.8281" style="stroke: #6CA43E; stroke-width: 1.0;"/><line style="stroke: #6CA43E; stroke-width: 1.0; stroke-dasharray: 2.0,2.0;" x1="69" x2="215" y1="176.8281" y2="176.8281"/><text fill="#000000" font-family="sans-serif" font-size="13" lengthAdjust="spacingAndGlyphs" textLength="128" x="81" y="171.895">connexion acceptée</text><line style="stroke: #000000; stroke-width: 1.0; stroke-dasharray: 2.0,2.0;" x1="13" x2="445" y1="185.9609" y2="185.9609"/><text fill="#000000" font-family="sans-serif" font-size="11" font-weight="bold" lengthAdjust="spacingAndGlyphs" textLength="320" x="18" y="196.1714">[nombre maximal d'utilisateurs connectés atteint]</text><polygon fill="#6CA43E" points="75,216.7656,65,220.7656,75,224.7656,71,220.7656" style="stroke: #6CA43E; stroke-width: 1.0;"/><line style="stroke: #6CA43E; stroke-width: 1.0; stroke-dasharray: 2.0,2.0;" x1="69" x2="220" y1="220.7656" y2="220.7656"/><text fill="#000000" font-family="sans-serif" font-size="13" lengthAdjust="spacingAndGlyphs" textLength="117" x="81" y="215.8325">connexion refusée</text></g></svg>