<?xml version="1.0" encoding="UTF-8" standalone="yes"?><svg xmlns="http://www.w3.org/2000/svg" xmlns:xlink="http://www.w3.org/1999/xlink" height="394px" style="width:773px;height:394px;" version="1.1" viewBox="0 0 773 394" width="773px"><defs/><g><rect fill="#73AE42" height="240.7344" style="stroke: #6CA43E; stroke-width: 1.0;" width="10" x="352" y="82.2969"/><rect fill="#73AE42" height="197.4688" style="stroke: #6CA43E; stroke-width: 1.0;" width="10" x="549" y="111.4297"/><rect fill="#73AE42" height="14.1328" style="stroke: #6CA43E; stroke-width: 1.0;" width="10" x="664" y="164.6953"/><rect fill="#73AE42" height="14.1328" style="stroke: #6CA43E; stroke-width: 1.0;" width="10" x="729" y="207.8281"/><rect fill="#FFFFFF" height="204.4688" style="stroke: #000000; stroke-width: 2.0;" width="759" x="13" y="126.5625"/><rect fill="#FFFFFF" height="57.9375" style="stroke: none; stroke-width: 1.0;" width="759" x="13" y="273.0938"/><line style="stroke: #6CA43E; stroke-width: 1.0; stroke-dasharray: 5.0,5.0;" x1="64" x2="64" y1="51.2969" y2="348.0313"/><line style="stroke: #6CA43E; stroke-width: 1.0; stroke-dasharray: 5.0,5.0;" x1="356.5" x2="356.5" y1="51.2969" y2="348.0313"/><line style="stroke: #6CA43E; stroke-width: 1.0; stroke-dasharray: 5.0,5.0;" x1="553.5" x2="553.5" y1="51.2969" y2="348.0313"/><line style="stroke: #6CA43E; stroke-width: 1.0; stroke-dasharray: 5.0,5.0;" x1="669" x2="669" y1="51.2969" y2="348.0313"/><line style="stroke: #6CA43E; stroke-width: 1.0; stroke-dasharray: 5.0,5.0;" x1="734" x2="734" y1="51.2969" y2="348.0313"/><rect fill="#5B9BD5" height="30.2969" style="stroke: #2E75B5; stroke-width: 1.5;" width="82" x="23" y="20"/><text fill="#000000" font-family="sans-serif" font-size="14" lengthAdjust="spacingAndGlyphs" textLength="68" x="30" y="39.9951">Utilisateur</text><rect fill="#5B9BD5" height="30.2969" style="stroke: #2E75B5; stroke-width: 1.5;" width="82" x="23" y="347.0313"/><text fill="#000000" font-family="sans-serif" font-size="14" lengthAdjust="spacingAndGlyphs" textLength="68" x="30" y="367.0264">Utilisateur</text><text fill="#000000" font-family="sans-serif" font-size="14" lengthAdjust="spacingAndGlyphs" textLength="77" x="315.5" y="47.9951">VueBureau</text><path d="M336.5,7 L336.5,31 M336.5,19 L353.5,19 " fill="#5B9BD5" style="stroke: #2E75B5; stroke-width: 2.0;"/><ellipse cx="365.5" cy="19" fill="#5B9BD5" rx="12" ry="12" style="stroke: #2E75B5; stroke-width: 2.0;"/><text fill="#000000" font-family="sans-serif" font-size="14" lengthAdjust="spacingAndGlyphs" textLength="77" x="315.5" y="360.0264">VueBureau</text><path d="M336.5,367.3281 L336.5,391.3281 M336.5,379.3281 L353.5,379.3281 " fill="#5B9BD5" style="stroke: #2E75B5; stroke-width: 2.0;"/><ellipse cx="365.5" cy="379.3281" fill="#5B9BD5" rx="12" ry="12" style="stroke: #2E75B5; stroke-width: 2.0;"/><text fill="#000000" font-family="sans-serif" font-size="14" lengthAdjust="spacingAndGlyphs" textLength="123" x="489.5" y="47.9951">ControleurBureau</text><ellipse cx="554" cy="19" fill="#5B9BD5" rx="12" ry="12" style="stroke: #2E75B5; stroke-width: 2.0;"/><polygon fill="#2E75B5" points="550,7,556,2,554,7,556,12,550,7" style="stroke: #2E75B5; stroke-width: 1.0;"/><text fill="#000000" font-family="sans-serif" font-size="14" lengthAdjust="spacingAndGlyphs" textLength="123" x="489.5" y="360.0264">ControleurBureau</text><ellipse cx="554" cy="379.3281" fill="#5B9BD5" rx="12" ry="12" style="stroke: #2E75B5; stroke-width: 2.0;"/><polygon fill="#2E75B5" points="550,367.3281,556,362.3281,554,367.3281,556,372.3281,550,367.3281" style="stroke: #2E75B5; stroke-width: 1.0;"/><text fill="#000000" font-family="sans-serif" font-size="14" lengthAdjust="spacingAndGlyphs" textLength="48" x="642" y="47.9951">Widget</text><ellipse cx="669" cy="19" fill="#5B9BD5" rx="12" ry="12" style="stroke: #2E75B5; stroke-width: 2.0;"/><line style="stroke: #2E75B5; stroke-width: 2.0;" x1="657" x2="681" y1="33" y2="33"/><text fill="#000000" font-family="sans-serif" font-size="14" lengthAdjust="spacingAndGlyphs" textLength="48" x="642" y="360.0264">Widget</text><ellipse cx="669" cy="379.3281" fill="#5B9BD5" rx="12" ry="12" style="stroke: #2E75B5; stroke-width: 2.0;"/><line style="stroke: #2E75B5; stroke-width: 2.0;" x1="657" x2="681" y1="393.3281" y2="393.3281"/><text fill="#000000" font-family="sans-serif" font-size="14" lengthAdjust="spacingAndGlyphs" textLength="50" x="706" y="47.9951">Bureau</text><ellipse cx="734" cy="19" fill="#5B9BD5" rx="12" ry="12" style="stroke: #2E75B5; stroke-width: 2.0;"/><line style="stroke: #2E75B5; stroke-width: 2.0;" x1="722" x2="746" y1="33" y2="33"/><text fill="#000000" font-family="sans-serif" font-size="14" lengthAdjust="spacingAndGlyphs" textLength="50" x="706" y="360.0264">Bureau</text><ellipse cx="734" cy="379.3281" fill="#5B9BD5" rx="12" ry="12" style="stroke: #2E75B5; stroke-width: 2.0;"/><line style="stroke: #2E75B5; stroke-width: 2.0;" x1="722" x2="746" y1="393.3281" y2="393.3281"/><rect fill="#73AE42" height="240.7344" style="stroke: #6CA43E; stroke-width: 1.0;" width="10" x="352" y="82.2969"/><rect fill="#73AE42" height="197.4688" style="stroke: #6CA43E; stroke-width: 1.0;" width="10" x="549" y="111.4297"/><rect fill="#73AE42" height="14.1328" style="stroke: #6CA43E; stroke-width: 1.0;" width="10" x="664" y="164.6953"/><rect fill="#73AE42" height="14.1328" style="stroke: #6CA43E; stroke-width: 1.0;" width="10" x="729" y="207.8281"/><polygon fill="#6CA43E" points="340,78.2969,350,82.2969,340,86.2969,344,82.2969" style="stroke: #6CA43E; stroke-width: 1.0;"/><line style="stroke: #6CA43E; stroke-width: 1.0;" x1="64" x2="346" y1="82.2969" y2="82.2969"/><text fill="#000000" font-family="sans-serif" font-size="13" lengthAdjust="spacingAndGlyphs" textLength="269" x="71" y="77.3638">clique sur le bouton d'ouverture du Widget</text><polygon fill="#6CA43E" points="537,107.4297,547,111.4297,537,115.4297,541,111.4297" style="stroke: #6CA43E; stroke-width: 1.0;"/><line style="stroke: #6CA43E; stroke-width: 1.0;" x1="362" x2="543" y1="111.4297" y2="111.4297"/><text fill="#000000" font-family="sans-serif" font-size="13" lengthAdjust="spacingAndGlyphs" textLength="89" x="369" y="106.4966">ouvrirWidget()</text><rect fill="none" height="204.4688" style="stroke: #000000; stroke-width: 2.0;" width="759" x="13" y="126.5625"/><polygon fill="#EEEEEE" points="13,126.5625,77,126.5625,77,133.5625,67,143.5625,13,143.5625,13,126.5625" style="stroke: #000000; stroke-width: 2.0;"/><text fill="#000000" font-family="sans-serif" font-size="13" font-weight="bold" lengthAdjust="spacingAndGlyphs" textLength="19" x="28" y="139.6294">alt</text><text fill="#000000" font-family="sans-serif" font-size="11" font-weight="bold" lengthAdjust="spacingAndGlyphs" textLength="326" x="92" y="138.7729">[nombre maximum de Widgets ouverts non atteint]</text><polygon fill="#6CA43E" points="652,160.6953,662,164.6953,652,168.6953,656,164.6953" style="stroke: #6CA43E; stroke-width: 1.0;"/><line style="stroke: #6CA43E; stroke-width: 1.0;" x1="559" x2="658" y1="164.6953" y2="164.6953"/><text fill="#000000" font-family="sans-serif" font-size="13" lengthAdjust="spacingAndGlyphs" textLength="86" x="566" y="159.7622">creerWidget()</text><polygon fill="#6CA43E" points="570,174.8281,560,178.8281,570,182.8281,566,178.8281" style="stroke: #6CA43E; stroke-width: 1.0;"/><line style="stroke: #6CA43E; stroke-width: 1.0; stroke-dasharray: 2.0,2.0;" x1="564" x2="668" y1="178.8281" y2="178.8281"/><polygon fill="#6CA43E" points="717,203.8281,727,207.8281,717,211.8281,721,207.8281" style="stroke: #6CA43E; stroke-width: 1.0;"/><line style="stroke: #6CA43E; stroke-width: 1.0;" x1="559" x2="723" y1="207.8281" y2="207.8281"/><text fill="#000000" font-family="sans-serif" font-size="13" lengthAdjust="spacingAndGlyphs" textLength="98" x="566" y="202.895">ajouterWidget()</text><polygon fill="#6CA43E" points="570,217.9609,560,221.9609,570,225.9609,566,221.9609" style="stroke: #6CA43E; stroke-width: 1.0;"/><line style="stroke: #6CA43E; stroke-width: 1.0; stroke-dasharray: 2.0,2.0;" x1="564" x2="733" y1="221.9609" y2="221.9609"/><polygon fill="#6CA43E" points="373,246.9609,363,250.9609,373,254.9609,369,250.9609" style="stroke: #6CA43E; stroke-width: 1.0;"/><line style="stroke: #6CA43E; stroke-width: 1.0;" x1="367" x2="548" y1="250.9609" y2="250.9609"/><text fill="#000000" font-family="sans-serif" font-size="13" lengthAdjust="spacingAndGlyphs" textLength="145" x="379" y="246.0278">miseAJourVueBureau()</text><polygon fill="#6CA43E" points="75,261.0938,65,265.0938,75,269.0938,71,265.0938" style="stroke: #6CA43E; stroke-width: 1.0;"/><line style="stroke: #6CA43E; stroke-width: 1.0; stroke-dasharray: 2.0,2.0;" x1="69" x2="351" y1="265.0938" y2="265.0938"/><line style="stroke: #000000; stroke-width: 1.0; stroke-dasharray: 2.0,2.0;" x1="13" x2="772" y1="274.0938" y2="274.0938"/><text fill="#000000" font-family="sans-serif" font-size="11" font-weight="bold" lengthAdjust="spacingAndGlyphs" textLength="298" x="18" y="284.3042">[nombre maximum de Widgets ouverts atteint]</text><polygon fill="#6CA43E" points="373,304.8984,363,308.8984,373,312.8984,369,308.8984" style="stroke: #6CA43E; stroke-width: 1.0;"/><line style="stroke: #6CA43E; stroke-width: 1.0;" x1="367" x2="553" y1="308.8984" y2="308.8984"/><text fill="#000000" font-family="sans-serif" font-size="13" lengthAdjust="spacingAndGlyphs" textLength="163" x="379" y="303.9653">afficherMessageDErreur()</text><polygon fill="#6CA43E" points="75,319.0313,65,323.0313,75,327.0313,71,323.0313" style="stroke: #6CA43E; stroke-width: 1.0;"/><line style="stroke: #6CA43E; stroke-width: 1.0; stroke-dasharray: 2.0,2.0;" x1="69" x2="356" y1="323.0313" y2="323.0313"/></g></svg>