<?xml version="1.0" encoding="UTF-8" standalone="yes"?><svg xmlns="http://www.w3.org/2000/svg" xmlns:xlink="http://www.w3.org/1999/xlink" height="377px" style="width:962px;height:377px;" version="1.1" viewBox="0 0 962 377" width="962px"><defs/><g><rect fill="#73AE42" height="230.9297" style="stroke: #6CA43E; stroke-width: 1.0;" width="10" x="393" y="82.2969"/><rect fill="#73AE42" height="130.5313" style="stroke: #6CA43E; stroke-width: 1.0;" width="10" x="689" y="168.5625"/><rect fill="#73AE42" height="14.1328" style="stroke: #6CA43E; stroke-width: 1.0;" width="10" x="830" y="255.9609"/><rect fill="#73AE42" height="29.1328" style="stroke: #6CA43E; stroke-width: 1.0;" width="10" x="934.5" y="197.6953"/><line style="stroke: #6CA43E; stroke-width: 1.0; stroke-dasharray: 5.0,5.0;" x1="49" x2="49" y1="51.2969" y2="331.2266"/><line style="stroke: #6CA43E; stroke-width: 1.0; stroke-dasharray: 5.0,5.0;" x1="397.5" x2="397.5" y1="51.2969" y2="331.2266"/><line style="stroke: #6CA43E; stroke-width: 1.0; stroke-dasharray: 5.0,5.0;" x1="693.5" x2="693.5" y1="51.2969" y2="331.2266"/><line style="stroke: #6CA43E; stroke-width: 1.0; stroke-dasharray: 5.0,5.0;" x1="834.5" x2="834.5" y1="51.2969" y2="331.2266"/><line style="stroke: #6CA43E; stroke-width: 1.0; stroke-dasharray: 5.0,5.0;" x1="939.5" x2="939.5" y1="51.2969" y2="331.2266"/><rect fill="#5B9BD5" height="30.2969" style="stroke: #2E75B5; stroke-width: 1.5;" width="82" x="8" y="20"/><text fill="#000000" font-family="sans-serif" font-size="14" lengthAdjust="spacingAndGlyphs" textLength="68" x="15" y="39.9951">Utilisateur</text><rect fill="#5B9BD5" height="30.2969" style="stroke: #2E75B5; stroke-width: 1.5;" width="82" x="8" y="330.2266"/><text fill="#000000" font-family="sans-serif" font-size="14" lengthAdjust="spacingAndGlyphs" textLength="68" x="15" y="350.2217">Utilisateur</text><text fill="#000000" font-family="sans-serif" font-size="14" lengthAdjust="spacingAndGlyphs" textLength="77" x="356.5" y="47.9951">VueBureau</text><path d="M377.5,7 L377.5,31 M377.5,19 L394.5,19 " fill="#5B9BD5" style="stroke: #2E75B5; stroke-width: 2.0;"/><ellipse cx="406.5" cy="19" fill="#5B9BD5" rx="12" ry="12" style="stroke: #2E75B5; stroke-width: 2.0;"/><text fill="#000000" font-family="sans-serif" font-size="14" lengthAdjust="spacingAndGlyphs" textLength="77" x="356.5" y="343.2217">VueBureau</text><path d="M377.5,350.5234 L377.5,374.5234 M377.5,362.5234 L394.5,362.5234 " fill="#5B9BD5" style="stroke: #2E75B5; stroke-width: 2.0;"/><ellipse cx="406.5" cy="362.5234" fill="#5B9BD5" rx="12" ry="12" style="stroke: #2E75B5; stroke-width: 2.0;"/><text fill="#000000" font-family="sans-serif" font-size="14" lengthAdjust="spacingAndGlyphs" textLength="123" x="629.5" y="47.9951">ControleurBureau</text><ellipse cx="694" cy="19" fill="#5B9BD5" rx="12" ry="12" style="stroke: #2E75B5; stroke-width: 2.0;"/><polygon fill="#2E75B5" points="690,7,696,2,694,7,696,12,690,7" style="stroke: #2E75B5; stroke-width: 1.0;"/><text fill="#000000" font-family="sans-serif" font-size="14" lengthAdjust="spacingAndGlyphs" textLength="123" x="629.5" y="343.2217">ControleurBureau</text><ellipse cx="694" cy="362.5234" fill="#5B9BD5" rx="12" ry="12" style="stroke: #2E75B5; stroke-width: 2.0;"/><polygon fill="#2E75B5" points="690,350.5234,696,345.5234,694,350.5234,696,355.5234,690,350.5234" style="stroke: #2E75B5; stroke-width: 1.0;"/><text fill="#000000" font-family="sans-serif" font-size="14" lengthAdjust="spacingAndGlyphs" textLength="127" x="768.5" y="47.9951">WidgetCalculatrice</text><ellipse cx="835" cy="19" fill="#5B9BD5" rx="12" ry="12" style="stroke: #2E75B5; stroke-width: 2.0;"/><line style="stroke: #2E75B5; stroke-width: 2.0;" x1="823" x2="847" y1="33" y2="33"/><text fill="#000000" font-family="sans-serif" font-size="14" lengthAdjust="spacingAndGlyphs" textLength="127" x="768.5" y="343.2217">WidgetCalculatrice</text><ellipse cx="835" cy="362.5234" fill="#5B9BD5" rx="12" ry="12" style="stroke: #2E75B5; stroke-width: 2.0;"/><line style="stroke: #2E75B5; stroke-width: 2.0;" x1="823" x2="847" y1="376.5234" y2="376.5234"/><text fill="#000000" font-family="sans-serif" font-size="14" lengthAdjust="spacingAndGlyphs" textLength="50" x="911.5" y="47.9951">Bureau</text><ellipse cx="939.5" cy="19" fill="#5B9BD5" rx="12" ry="12" style="stroke: #2E75B5; stroke-width: 2.0;"/><line style="stroke: #2E75B5; stroke-width: 2.0;" x1="927.5" x2="951.5" y1="33" y2="33"/><text fill="#000000" font-family="sans-serif" font-size="14" lengthAdjust="spacingAndGlyphs" textLength="50" x="911.5" y="343.2217">Bureau</text><ellipse cx="939.5" cy="362.5234" fill="#5B9BD5" rx="12" ry="12" style="stroke: #2E75B5; stroke-width: 2.0;"/><line style="stroke: #2E75B5; stroke-width: 2.0;" x1="927.5" x2="951.5" y1="376.5234" y2="376.5234"/><rect fill="#73AE42" height="230.9297" style="stroke: #6CA43E; stroke-width: 1.0;" width="10" x="393" y="82.2969"/><rect fill="#73AE42" height="130.5313" style="stroke: #6CA43E; stroke-width: 1.0;" width="10" x="689" y="168.5625"/><rect fill="#73AE42" height="14.1328" style="stroke: #6CA43E; stroke-width: 1.0;" width="10" x="830" y="255.9609"/><rect fill="#73AE42" height="29.1328" style="stroke: #6CA43E; stroke-width: 1.0;" width="10" x="934.5" y="197.6953"/><polygon fill="#6CA43E" points="381,78.2969,391,82.2969,381,86.2969,385,82.2969" style="stroke: #6CA43E; stroke-width: 1.0;"/><line style="stroke: #6CA43E; stroke-width: 1.0;" x1="49" x2="387" y1="82.2969" y2="82.2969"/><text fill="#000000" font-family="sans-serif" font-size="13" lengthAdjust="spacingAndGlyphs" textLength="325" x="56" y="77.3638">clique sur le champ de saisie de CalculatriceWidget</text><polygon fill="#6CA43E" points="60,92.4297,50,96.4297,60,100.4297,56,96.4297" style="stroke: #6CA43E; stroke-width: 1.0;"/><line style="stroke: #6CA43E; stroke-width: 1.0; stroke-dasharray: 2.0,2.0;" x1="54" x2="392" y1="96.4297" y2="96.4297"/><polygon fill="#6CA43E" points="381,121.4297,391,125.4297,381,129.4297,385,125.4297" style="stroke: #6CA43E; stroke-width: 1.0;"/><line style="stroke: #6CA43E; stroke-width: 1.0;" x1="49" x2="387" y1="125.4297" y2="125.4297"/><text fill="#000000" font-family="sans-serif" font-size="13" lengthAdjust="spacingAndGlyphs" textLength="126" x="56" y="120.4966">saisit une opération</text><polygon fill="#6CA43E" points="60,135.5625,50,139.5625,60,143.5625,56,139.5625" style="stroke: #6CA43E; stroke-width: 1.0;"/><line style="stroke: #6CA43E; stroke-width: 1.0; stroke-dasharray: 2.0,2.0;" x1="54" x2="392" y1="139.5625" y2="139.5625"/><polygon fill="#6CA43E" points="677,164.5625,687,168.5625,677,172.5625,681,168.5625" style="stroke: #6CA43E; stroke-width: 1.0;"/><line style="stroke: #6CA43E; stroke-width: 1.0;" x1="403" x2="683" y1="168.5625" y2="168.5625"/><text fill="#000000" font-family="sans-serif" font-size="13" lengthAdjust="spacingAndGlyphs" textLength="267" x="410" y="163.6294">mettreAJourOperationCalculatriceWidget()</text><polygon fill="#6CA43E" points="922.5,193.6953,932.5,197.6953,922.5,201.6953,926.5,197.6953" style="stroke: #6CA43E; stroke-width: 1.0;"/><line style="stroke: #6CA43E; stroke-width: 1.0;" x1="699" x2="928.5" y1="197.6953" y2="197.6953"/><text fill="#000000" font-family="sans-serif" font-size="13" lengthAdjust="spacingAndGlyphs" textLength="74" x="706" y="192.7622">getWidget()</text><polygon fill="#6CA43E" points="710,222.8281,700,226.8281,710,230.8281,706,226.8281" style="stroke: #6CA43E; stroke-width: 1.0;"/><line style="stroke: #6CA43E; stroke-width: 1.0;" x1="704" x2="938.5" y1="226.8281" y2="226.8281"/><text fill="#000000" font-family="sans-serif" font-size="13" lengthAdjust="spacingAndGlyphs" textLength="117" x="716" y="221.895">WidgetCalculatrice</text><polygon fill="#6CA43E" points="818,251.9609,828,255.9609,818,259.9609,822,255.9609" style="stroke: #6CA43E; stroke-width: 1.0;"/><line style="stroke: #6CA43E; stroke-width: 1.0;" x1="699" x2="824" y1="255.9609" y2="255.9609"/><text fill="#000000" font-family="sans-serif" font-size="13" lengthAdjust="spacingAndGlyphs" textLength="93" x="706" y="251.0278">setOperation()</text><polygon fill="#6CA43E" points="710,266.0938,700,270.0938,710,274.0938,706,270.0938" style="stroke: #6CA43E; stroke-width: 1.0;"/><line style="stroke: #6CA43E; stroke-width: 1.0; stroke-dasharray: 2.0,2.0;" x1="704" x2="834" y1="270.0938" y2="270.0938"/><polygon fill="#6CA43E" points="414,295.0938,404,299.0938,414,303.0938,410,299.0938" style="stroke: #6CA43E; stroke-width: 1.0;"/><line style="stroke: #6CA43E; stroke-width: 1.0;" x1="408" x2="693" y1="299.0938" y2="299.0938"/><text fill="#000000" font-family="sans-serif" font-size="13" lengthAdjust="spacingAndGlyphs" textLength="145" x="420" y="294.1606">miseAJourVueBureau()</text><polygon fill="#6CA43E" points="60,309.2266,50,313.2266,60,317.2266,56,313.2266" style="stroke: #6CA43E; stroke-width: 1.0;"/><line style="stroke: #6CA43E; stroke-width: 1.0; stroke-dasharray: 2.0,2.0;" x1="54" x2="397" y1="313.2266" y2="313.2266"/></g></svg>