<?xml version="1.0" encoding="UTF-8" standalone="yes"?><svg xmlns="http://www.w3.org/2000/svg" xmlns:xlink="http://www.w3.org/1999/xlink" height="320px" style="width:955px;height:320px;" version="1.1" viewBox="0 0 955 320" width="955px"><defs/><g><rect fill="#73AE42" height="173.7969" style="stroke: #6CA43E; stroke-width: 1.0;" width="10" x="446" y="82.2969"/><rect fill="#73AE42" height="130.5313" style="stroke: #6CA43E; stroke-width: 1.0;" width="10" x="713" y="111.4297"/><rect fill="#73AE42" height="14.1328" style="stroke: #6CA43E; stroke-width: 1.0;" width="10" x="838.5" y="198.8281"/><rect fill="#73AE42" height="29.1328" style="stroke: #6CA43E; stroke-width: 1.0;" width="10" x="927.5" y="140.5625"/><line style="stroke: #6CA43E; stroke-width: 1.0; stroke-dasharray: 5.0,5.0;" x1="49" x2="49" y1="51.2969" y2="274.0938"/><line style="stroke: #6CA43E; stroke-width: 1.0; stroke-dasharray: 5.0,5.0;" x1="450.5" x2="450.5" y1="51.2969" y2="274.0938"/><line style="stroke: #6CA43E; stroke-width: 1.0; stroke-dasharray: 5.0,5.0;" x1="717.5" x2="717.5" y1="51.2969" y2="274.0938"/><line style="stroke: #6CA43E; stroke-width: 1.0; stroke-dasharray: 5.0,5.0;" x1="843.5" x2="843.5" y1="51.2969" y2="274.0938"/><line style="stroke: #6CA43E; stroke-width: 1.0; stroke-dasharray: 5.0,5.0;" x1="932.5" x2="932.5" y1="51.2969" y2="274.0938"/><rect fill="#5B9BD5" height="30.2969" style="stroke: #2E75B5; stroke-width: 1.5;" width="82" x="8" y="20"/><text fill="#000000" font-family="sans-serif" font-size="14" lengthAdjust="spacingAndGlyphs" textLength="68" x="15" y="39.9951">Utilisateur</text><rect fill="#5B9BD5" height="30.2969" style="stroke: #2E75B5; stroke-width: 1.5;" width="82" x="8" y="273.0938"/><text fill="#000000" font-family="sans-serif" font-size="14" lengthAdjust="spacingAndGlyphs" textLength="68" x="15" y="293.0889">Utilisateur</text><text fill="#000000" font-family="sans-serif" font-size="14" lengthAdjust="spacingAndGlyphs" textLength="77" x="409.5" y="47.9951">VueBureau</text><path d="M430.5,7 L430.5,31 M430.5,19 L447.5,19 " fill="#5B9BD5" style="stroke: #2E75B5; stroke-width: 2.0;"/><ellipse cx="459.5" cy="19" fill="#5B9BD5" rx="12" ry="12" style="stroke: #2E75B5; stroke-width: 2.0;"/><text fill="#000000" font-family="sans-serif" font-size="14" lengthAdjust="spacingAndGlyphs" textLength="77" x="409.5" y="286.0889">VueBureau</text><path d="M430.5,293.3906 L430.5,317.3906 M430.5,305.3906 L447.5,305.3906 " fill="#5B9BD5" style="stroke: #2E75B5; stroke-width: 2.0;"/><ellipse cx="459.5" cy="305.3906" fill="#5B9BD5" rx="12" ry="12" style="stroke: #2E75B5; stroke-width: 2.0;"/><text fill="#000000" font-family="sans-serif" font-size="14" lengthAdjust="spacingAndGlyphs" textLength="123" x="653.5" y="47.9951">ControleurBureau</text><ellipse cx="718" cy="19" fill="#5B9BD5" rx="12" ry="12" style="stroke: #2E75B5; stroke-width: 2.0;"/><polygon fill="#2E75B5" points="714,7,720,2,718,7,720,12,714,7" style="stroke: #2E75B5; stroke-width: 1.0;"/><text fill="#000000" font-family="sans-serif" font-size="14" lengthAdjust="spacingAndGlyphs" textLength="123" x="653.5" y="286.0889">ControleurBureau</text><ellipse cx="718" cy="305.3906" fill="#5B9BD5" rx="12" ry="12" style="stroke: #2E75B5; stroke-width: 2.0;"/><polygon fill="#2E75B5" points="714,293.3906,720,288.3906,718,293.3906,720,298.3906,714,293.3906" style="stroke: #2E75B5; stroke-width: 1.0;"/><text fill="#000000" font-family="sans-serif" font-size="14" lengthAdjust="spacingAndGlyphs" textLength="96" x="792.5" y="47.9951">WidgetGalerie</text><ellipse cx="843.5" cy="19" fill="#5B9BD5" rx="12" ry="12" style="stroke: #2E75B5; stroke-width: 2.0;"/><line style="stroke: #2E75B5; stroke-width: 2.0;" x1="831.5" x2="855.5" y1="33" y2="33"/><text fill="#000000" font-family="sans-serif" font-size="14" lengthAdjust="spacingAndGlyphs" textLength="96" x="792.5" y="286.0889">WidgetGalerie</text><ellipse cx="843.5" cy="305.3906" fill="#5B9BD5" rx="12" ry="12" style="stroke: #2E75B5; stroke-width: 2.0;"/><line style="stroke: #2E75B5; stroke-width: 2.0;" x1="831.5" x2="855.5" y1="319.3906" y2="319.3906"/><text fill="#000000" font-family="sans-serif" font-size="14" lengthAdjust="spacingAndGlyphs" textLength="50" x="904.5" y="47.9951">Bureau</text><ellipse cx="932.5" cy="19" fill="#5B9BD5" rx="12" ry="12" style="stroke: #2E75B5; stroke-width: 2.0;"/><line style="stroke: #2E75B5; stroke-width: 2.0;" x1="920.5" x2="944.5" y1="33" y2="33"/><text fill="#000000" font-family="sans-serif" font-size="14" lengthAdjust="spacingAndGlyphs" textLength="50" x="904.5" y="286.0889">Bureau</text><ellipse cx="932.5" cy="305.3906" fill="#5B9BD5" rx="12" ry="12" style="stroke: #2E75B5; stroke-width: 2.0;"/><line style="stroke: #2E75B5; stroke-width: 2.0;" x1="920.5" x2="944.5" y1="319.3906" y2="319.3906"/><rect fill="#73AE42" height="173.7969" style="stroke: #6CA43E; stroke-width: 1.0;" width="10" x="446" y="82.2969"/><rect fill="#73AE42" height="130.5313" style="stroke: #6CA43E; stroke-width: 1.0;" width="10" x="713" y="111.4297"/><rect fill="#73AE42" height="14.1328" style="stroke: #6CA43E; stroke-width: 1.0;" width="10" x="838.5" y="198.8281"/><rect fill="#73AE42" height="29.1328" style="stroke: #6CA43E; stroke-width: 1.0;" width="10" x="927.5" y="140.5625"/><polygon fill="#6CA43E" points="434,78.2969,444,82.2969,434,86.2969,438,82.2969" style="stroke: #6CA43E; stroke-width: 1.0;"/><line style="stroke: #6CA43E; stroke-width: 1.0;" x1="49" x2="440" y1="82.2969" y2="82.2969"/><text fill="#000000" font-family="sans-serif" font-size="13" lengthAdjust="spacingAndGlyphs" textLength="378" x="56" y="77.3638">clique sur le bouton de navigation gauche du WidgetGalerie</text><polygon fill="#6CA43E" points="701,107.4297,711,111.4297,701,115.4297,705,111.4297" style="stroke: #6CA43E; stroke-width: 1.0;"/><line style="stroke: #6CA43E; stroke-width: 1.0;" x1="456" x2="707" y1="111.4297" y2="111.4297"/><text fill="#000000" font-family="sans-serif" font-size="13" lengthAdjust="spacingAndGlyphs" textLength="238" x="463" y="106.4966">mettreAJourOperationWidgetGalerie()</text><polygon fill="#6CA43E" points="915.5,136.5625,925.5,140.5625,915.5,144.5625,919.5,140.5625" style="stroke: #6CA43E; stroke-width: 1.0;"/><line style="stroke: #6CA43E; stroke-width: 1.0;" x1="723" x2="921.5" y1="140.5625" y2="140.5625"/><text fill="#000000" font-family="sans-serif" font-size="13" lengthAdjust="spacingAndGlyphs" textLength="74" x="730" y="135.6294">getWidget()</text><polygon fill="#6CA43E" points="734,165.6953,724,169.6953,734,173.6953,730,169.6953" style="stroke: #6CA43E; stroke-width: 1.0;"/><line style="stroke: #6CA43E; stroke-width: 1.0;" x1="728" x2="931.5" y1="169.6953" y2="169.6953"/><text fill="#000000" font-family="sans-serif" font-size="13" lengthAdjust="spacingAndGlyphs" textLength="88" x="740" y="164.7622">WidgetGalerie</text><polygon fill="#6CA43E" points="826.5,194.8281,836.5,198.8281,826.5,202.8281,830.5,198.8281" style="stroke: #6CA43E; stroke-width: 1.0;"/><line style="stroke: #6CA43E; stroke-width: 1.0;" x1="723" x2="832.5" y1="198.8281" y2="198.8281"/><text fill="#000000" font-family="sans-serif" font-size="13" lengthAdjust="spacingAndGlyphs" textLength="56" x="730" y="193.895">suivant()</text><polygon fill="#6CA43E" points="734,208.9609,724,212.9609,734,216.9609,730,212.9609" style="stroke: #6CA43E; stroke-width: 1.0;"/><line style="stroke: #6CA43E; stroke-width: 1.0; stroke-dasharray: 2.0,2.0;" x1="728" x2="842.5" y1="212.9609" y2="212.9609"/><polygon fill="#6CA43E" points="467,237.9609,457,241.9609,467,245.9609,463,241.9609" style="stroke: #6CA43E; stroke-width: 1.0;"/><line style="stroke: #6CA43E; stroke-width: 1.0;" x1="461" x2="717" y1="241.9609" y2="241.9609"/><text fill="#000000" font-family="sans-serif" font-size="13" lengthAdjust="spacingAndGlyphs" textLength="145" x="473" y="237.0278">miseAJourVueBureau()</text><polygon fill="#6CA43E" points="60,252.0938,50,256.0938,60,260.0938,56,256.0938" style="stroke: #6CA43E; stroke-width: 1.0;"/><line style="stroke: #6CA43E; stroke-width: 1.0; stroke-dasharray: 2.0,2.0;" x1="54" x2="450" y1="256.0938" y2="256.0938"/></g></svg>