<?xml version="1.0" encoding="UTF-8" standalone="yes"?><svg xmlns="http://www.w3.org/2000/svg" xmlns:xlink="http://www.w3.org/1999/xlink" height="201px" style="width:412px;height:201px;" version="1.1" viewBox="0 0 412 201" width="412px"><defs/><g><rect fill="#73AE42" height="87.3984" style="stroke: #6CA43E; stroke-width: 1.0;" width="10" x="200" y="65.2969"/><rect fill="#73AE42" height="29.1328" style="stroke: #6CA43E; stroke-width: 1.0;" width="10" x="369" y="94.4297"/><line style="stroke: #6CA43E; stroke-width: 1.0; stroke-dasharray: 5.0,5.0;" x1="49" x2="49" y1="34.2969" y2="170.8281"/><line style="stroke: #6CA43E; stroke-width: 1.0; stroke-dasharray: 5.0,5.0;" x1="204.5" x2="204.5" y1="34.2969" y2="170.8281"/><line style="stroke: #6CA43E; stroke-width: 1.0; stroke-dasharray: 5.0,5.0;" x1="374" x2="374" y1="34.2969" y2="170.8281"/><rect fill="#5B9BD5" height="30.2969" style="stroke: #2E75B5; stroke-width: 1.5;" width="82" x="8" y="3"/><text fill="#000000" font-family="sans-serif" font-size="14" lengthAdjust="spacingAndGlyphs" textLength="68" x="15" y="22.9951">Utilisateur</text><rect fill="#5B9BD5" height="30.2969" style="stroke: #2E75B5; stroke-width: 1.5;" width="82" x="8" y="169.8281"/><text fill="#000000" font-family="sans-serif" font-size="14" lengthAdjust="spacingAndGlyphs" textLength="68" x="15" y="189.8232">Utilisateur</text><rect fill="#5B9BD5" height="30.2969" style="stroke: #2E75B5; stroke-width: 1.5;" width="67" x="171.5" y="3"/><text fill="#000000" font-family="sans-serif" font-size="14" lengthAdjust="spacingAndGlyphs" textLength="53" x="178.5" y="22.9951">Serveur</text><rect fill="#5B9BD5" height="30.2969" style="stroke: #2E75B5; stroke-width: 1.5;" width="67" x="171.5" y="169.8281"/><text fill="#000000" font-family="sans-serif" font-size="14" lengthAdjust="spacingAndGlyphs" textLength="53" x="178.5" y="189.8232">Serveur</text><rect fill="#5B9BD5" height="30.2969" style="stroke: #2E75B5; stroke-width: 1.5;" width="74" x="337" y="3"/><text fill="#000000" font-family="sans-serif" font-size="14" lengthAdjust="spacingAndGlyphs" textLength="60" x="344" y="22.9951">Système</text><rect fill="#5B9BD5" height="30.2969" style="stroke: #2E75B5; stroke-width: 1.5;" width="74" x="337" y="169.8281"/><text fill="#000000" font-family="sans-serif" font-size="14" lengthAdjust="spacingAndGlyphs" textLength="60" x="344" y="189.8232">Système</text><rect fill="#73AE42" height="87.3984" style="stroke: #6CA43E; stroke-width: 1.0;" width="10" x="200" y="65.2969"/><rect fill="#73AE42" height="29.1328" style="stroke: #6CA43E; stroke-width: 1.0;" width="10" x="369" y="94.4297"/><polygon fill="#6CA43E" points="188,61.2969,198,65.2969,188,69.2969,192,65.2969" style="stroke: #6CA43E; stroke-width: 1.0;"/><line style="stroke: #6CA43E; stroke-width: 1.0;" x1="49" x2="194" y1="65.2969" y2="65.2969"/><text fill="#000000" font-family="sans-serif" font-size="13" lengthAdjust="spacingAndGlyphs" textLength="91" x="56" y="60.3638">déconnexion()</text><polygon fill="#6CA43E" points="357,90.4297,367,94.4297,357,98.4297,361,94.4297" style="stroke: #6CA43E; stroke-width: 1.0;"/><line style="stroke: #6CA43E; stroke-width: 1.0;" x1="210" x2="363" y1="94.4297" y2="94.4297"/><text fill="#000000" font-family="sans-serif" font-size="13" lengthAdjust="spacingAndGlyphs" textLength="140" x="217" y="89.4966">supprimerUtilisateur()</text><polygon fill="#6CA43E" points="221,119.5625,211,123.5625,221,127.5625,217,123.5625" style="stroke: #6CA43E; stroke-width: 1.0;"/><line style="stroke: #6CA43E; stroke-width: 1.0; stroke-dasharray: 2.0,2.0;" x1="215" x2="373" y1="123.5625" y2="123.5625"/><text fill="#000000" font-family="sans-serif" font-size="13" lengthAdjust="spacingAndGlyphs" textLength="129" x="227" y="118.6294">Utilisateur supprimé</text><polygon fill="#6CA43E" points="60,148.6953,50,152.6953,60,156.6953,56,152.6953" style="stroke: #6CA43E; stroke-width: 1.0;"/><line style="stroke: #6CA43E; stroke-width: 1.0; stroke-dasharray: 2.0,2.0;" x1="54" x2="204" y1="152.6953" y2="152.6953"/><text fill="#000000" font-family="sans-serif" font-size="13" lengthAdjust="spacingAndGlyphs" textLength="127" x="66" y="147.7622">connexion terminée</text></g></svg>